<svg version="1" xmlns="http://www.w3.org/2000/svg" width="1058.667" height="1058.667" viewBox="0 0 794.000000 794.000000"><path d="M375.8.5c-.2.2-4.3.6-9.3.9-4.9.4-10.1.8-11.5 1-1.4.3-5 .7-8.1 1.1-3.1.3-6.5.7-7.5.9-3.8.7-10.5 1.8-12.7 2-3 .4-7.8 1.4-15.7 3.3-3.6.8-7.6 1.7-9 2-7.7 1.3-35.6 10.4-52 16.8-18.2 7.1-63.6 30.7-64.8 33.7-.2.4-.8.8-1.4.8-1.5 0-18.6 12-29.8 20.8-24 19-48.1 42.8-65.4 64.7-2.6 3.3-5.3 6.7-5.9 7.5-11.9 15-30.4 45.1-40.4 66-7.9 16.4-11.1 23.9-16.6 39-4.4 12.3-9.8 29.4-11.2 35.7-.2 1-1.5 6.7-2.9 12.8-1.4 6-2.7 12.6-3 14.5-.3 1.9-.8 4.6-1.1 6-.3 1.4-1 5.9-1.6 10-.5 4.1-1.2 9-1.4 10.8C2.6 363.9 1.9 408 3.2 426c.7 8.6 3.4 30.4 4.3 35 .3 1.4.8 4 1.1 5.9 1.3 7.5 6.1 28.4 8 34.6.8 2.7 2.7 8.8 4.1 13.5 1.4 4.7 3 9.4 3.4 10.5.4 1.1 2 5.1 3.4 9 20.2 53.3 50.3 99.8 91.2 141.2 19.6 19.7 44.5 40 62.6 50.9 2.7 1.6 6.1 3.6 7.5 4.5 24.2 14.8 55 29.3 81.2 38.2 11.2 3.8 31.8 9.7 38.8 11.2.9.2 3.7.8 6.2 1.4 4.7 1 7.7 1.6 14.5 2.7 2.2.3 4.2.7 4.5.9.3.2 3.7.6 7.5 1 3.9.4 7.3.9 7.6 1.1.3.2 3.9.6 8 1 4.1.3 7.6.7 7.9.9 1.1.7 25 1.9 37 1.9 20.5 0 34.8-1.6 70.5-7.9 15.1-2.7 48.4-12.7 73.5-22 15.2-5.6 56.4-27.5 71.9-38.2 57.7-39.9 101.7-89.9 132.2-150.3 15.1-29.9 25.6-59.4 33.6-94.5.2-1.1 1.3-6.7 2.4-12.5 1.8-10.2 2.2-12.8 3.4-23.5.3-2.8.7-5.9.9-7 2.4-12.1 2.4-61.3.1-79.2-.2-1.5-.7-5.5-1-8.8-.3-3.3-.8-7.1-1-8.5-.2-1.4-.7-4.1-1-6-16-99.6-69.5-189.3-149.5-251.1-11.7-8.9-22.6-16.5-34.5-23.6C574.4 40.9 551.1 30 524 21c-19.6-6.4-29.7-9.3-40-11.4-10.5-2.1-18.1-3.5-21.5-4-2.2-.3-5.7-.9-7.8-1.2-4.9-.8-7.9-1.1-15.3-1.9-3.3-.4-7.4-.8-9-1.1C427 .9 376.3 0 375.8.5z"/></svg>